<svg width="331" height="282" viewBox="0 0 331 282" fill="none" xmlns="http://www.w3.org/2000/svg">
<path d="M331 141C331 186.339 305.878 226.682 266.847 252.476C238.847 270.985 203.687 282 165.5 282C127.313 282 92.1531 270.985 64.1532 252.476C25.1224 226.682 0 186.339 0 141C0 63.1278 74.0968 0 165.5 0C256.903 0 331 63.1278 331 141Z" fill="#F2F2F2"/>
<path d="M285.741 65.8042L266.847 252.477C238.847 270.985 203.687 282 165.5 282C127.314 282 92.1533 270.985 64.1534 252.477L45.2593 65.8042H285.741Z" fill="#006BC0"/>
<path d="M165.498 83.354V278.307L244.545 259.295L262.179 83.354H165.498Z" fill="#0096DC"/>
<path d="M235.343 159.609H178.333L237.906 133.779L240.48 107.813H90.5161L93.1402 134.286H153.339L95.5794 158.891L98.2668 186.011H201.3L197.922 218.311L165.498 225.793L131.722 217.735L130.878 197.593H99.415L103.351 237.303L165.498 252.266L227.645 237.303L235.345 159.605L235.343 159.609Z" fill="white"/>
<path d="M106.898 37.0259V18.6095H137.971V8.63428H95.6392V47.0011H137.971V37.0259H106.898Z" fill="#222123"/>
<path d="M156.153 23.6453V19.0407H187.059V18.6095V8.63428H144.726V32.4214H175.068V37.0259H144.726V47.0011H187.059V37.0259V23.6453H156.153Z" fill="#222123"/>
<path d="M204.452 23.6453V19.0407H235.357V18.6095V8.63428H193.025V32.4214H223.366V37.0259H193.025V47.0011H235.357V37.0259V23.6453H204.452Z" fill="#222123"/>
</svg>
