<svg width="285" height="322" viewBox="0 0 285 322" fill="none" xmlns="http://www.w3.org/2000/svg">
<path d="M4.35731 83C1.73774 83 -0.213852 84.7902 0.018825 86.9776L22.1014 294.693C22.3341 296.881 24.5885 299.152 27.1135 299.74L120.821 321.559C123.345 322.147 127.475 322.147 130 321.56L223.993 299.705C226.517 299.118 228.774 296.847 229.007 294.66L251.126 86.9776C251.36 84.7902 249.406 83 246.787 83H4.35731ZM204.098 130.639C203.889 132.59 203.528 135.978 203.296 138.165L202.714 143.615C202.48 145.802 202.146 148.93 201.97 150.566C201.795 152.201 201.629 153.539 201.598 153.539C201.568 153.539 199.4 153.539 196.781 153.539H130.335C127.715 153.539 125.55 153.539 125.522 153.539C125.494 153.539 123.327 153.539 120.707 153.539H85.7119C83.0923 153.539 81.1408 155.33 81.3734 157.517L83.4146 176.651C83.6473 178.838 85.9819 180.629 88.6009 180.629H120.708C123.327 180.629 125.494 180.629 125.523 180.629C125.551 180.629 127.716 180.629 130.335 180.629H185.522C188.142 180.629 192.195 180.629 194.53 180.629C196.863 180.629 198.6 182.226 198.388 184.177C198.176 186.128 197.813 189.517 197.581 191.704L191.017 253.391C190.783 255.579 190.487 258.374 190.359 259.602C190.229 260.83 188.058 262.315 185.534 262.902L130.162 275.777C127.638 276.364 125.541 276.849 125.501 276.857C125.462 276.864 123.366 276.389 120.841 275.802L65.41 262.903C62.8856 262.316 60.6301 260.045 60.398 257.858L56.8299 224.274C56.5972 222.086 58.551 220.296 61.1706 220.296H66.2294C68.849 220.296 73.1351 220.296 75.7541 220.296H83.2977C85.9173 220.296 88.2496 222.086 88.484 224.274L89.8834 237.421C90.1161 239.608 92.3744 241.866 94.9038 242.439L120.832 248.311C123.359 248.884 125.438 249.352 125.45 249.352C125.461 249.352 127.539 248.883 130.068 248.31L156.042 242.424C158.57 241.851 160.83 239.593 161.065 237.406L163.881 211.066C164.116 208.878 162.164 207.087 159.545 207.087H130.335C127.716 207.087 125.551 207.087 125.523 207.087C125.494 207.087 123.327 207.087 120.708 207.087H59.7584C57.1388 207.087 54.8065 205.297 54.5738 203.11L47.6625 138.166C47.4299 135.978 47.0691 132.591 46.8604 130.639C46.6539 128.688 48.6261 127.091 51.2456 127.091H120.708C123.327 127.091 125.494 127.091 125.523 127.091C125.551 127.091 127.716 127.091 130.335 127.091H199.713C202.332 127.09 204.305 128.687 204.098 130.639Z" fill="#DD512A"/>
<path d="M142.12 73V54.888H133.096V73H124.328V28.968H133.096V46.76H142.12V28.968H150.888V73H142.12ZM159.18 73V47.272H155.148V40.36H159.18V30.888H167.436V40.36H172.62V47.272H167.436V73H159.18ZM205.18 55.336C205.18 52.648 205.116 50.792 204.988 49.768C204.86 48.7013 204.604 48.04 204.22 47.784C203.879 47.4853 203.217 47.336 202.236 47.336C201.212 47.336 200.487 47.5493 200.06 47.976C199.633 48.4027 199.356 49.192 199.228 50.344C199.143 51.4533 199.1 53.4373 199.1 56.296V73H190.844V55.336C190.844 52.648 190.78 50.792 190.652 49.768C190.524 48.7013 190.268 48.04 189.884 47.784C189.543 47.4853 188.86 47.336 187.836 47.336C186.812 47.336 186.087 47.5493 185.66 47.976C185.276 48.4027 185.02 49.2133 184.892 50.408C184.764 51.56 184.7 53.5227 184.7 56.296V73H176.444V40.36H184.252L184.508 44.264H184.956C185.596 42.6853 186.492 41.5547 187.644 40.872C188.796 40.1893 190.268 39.848 192.06 39.848C193.98 39.848 195.452 40.2107 196.476 40.936C197.5 41.6187 198.204 42.728 198.588 44.264H199.1C199.697 42.6853 200.593 41.5547 201.788 40.872C202.983 40.1893 204.476 39.848 206.268 39.848C208.231 39.848 209.724 40.2533 210.748 41.064C211.772 41.832 212.476 43.0267 212.86 44.648C213.244 46.2267 213.436 48.4027 213.436 51.176V73H205.18V55.336ZM219.257 73V25.448H227.513V73H219.257ZM233.446 65.256C236.603 65.5973 239.44 65.768 241.958 65.768C243.92 65.768 245.35 65.6187 246.246 65.32C247.142 65.0213 247.739 64.4453 248.038 63.592C248.379 62.696 248.55 61.288 248.55 59.368C248.55 57.3627 248.379 55.9333 248.038 55.08C247.696 54.184 247.078 53.608 246.182 53.352C245.286 53.0533 243.835 52.904 241.83 52.904C239.27 52.904 236.56 53.096 233.702 53.48V28.968H255.526V36.712H241.83V45.608C242.384 45.48 243.131 45.3733 244.07 45.288C245.008 45.2027 245.904 45.16 246.758 45.16C250.811 45.16 253.584 46.2693 255.078 48.488C256.614 50.664 257.382 53.992 257.382 58.472C257.382 62.2267 257.019 65.1707 256.294 67.304C255.568 69.4373 254.267 71.016 252.39 72.04C250.512 73.0213 247.824 73.512 244.326 73.512C242.747 73.512 240.934 73.4053 238.885 73.192C236.838 72.9787 235.024 72.7013 233.446 72.36V65.256Z" fill="black"/>
</svg>
