<svg width="236" height="222" viewBox="0 0 236 222" fill="none" xmlns="http://www.w3.org/2000/svg">
<path d="M236 111C236 125.462 233.062 139.276 227.711 151.948C224.85 158.726 221.3 165.177 217.139 171.221C211.957 178.76 205.825 185.669 198.909 191.795C194.859 195.387 190.543 198.708 185.987 201.735C166.77 214.502 143.319 222 118 222C92.6807 222 69.23 214.502 50.0126 201.735C44.3099 197.947 38.9833 193.702 34.0946 189.044C13.0136 168.996 0 141.423 0 111C0 80.5769 13.0136 53.0038 34.0946 32.9557C39.2723 28.0266 44.9409 23.5545 51.0239 19.6041C70.0487 7.23972 93.1237 0 118 0C142.876 0 165.951 7.23972 184.976 19.6041C189.624 22.6171 194.026 25.9423 198.153 29.5442C205.383 35.8326 211.769 42.9683 217.139 50.779C221.301 56.8229 224.85 63.2743 227.711 70.0523C233.062 82.7245 236 96.5383 236 111Z" fill="#E4BA42"/>
<path d="M180.25 101.014C176.966 92.0545 163.499 92.0545 160.872 99.4694C158.245 106.884 167.113 111.209 180.907 115.535C194.702 119.861 203.241 131.293 201.599 141.488C199.957 151.683 195.358 164.968 168.098 164.968C151.061 164.968 141.592 154.951 136.886 147.439L152.333 138.707C152.333 138.707 157.588 149.212 167.441 149.212C177.294 149.212 181.235 146.122 181.235 139.016C181.235 130.366 149.376 127.276 144.45 112.446C139.523 97.6158 146.092 76.6069 169.083 78.1513C183.452 79.1169 191.535 85.7544 195.576 90.5968L180.25 101.014Z" fill="#F2F2F2"/>
<path d="M108.65 79.6968C108.65 79.6968 108.65 131.911 108.65 139.017C108.65 146.122 102.081 149.831 95.5119 148.594C88.9431 147.359 85.9871 139.944 85.9871 139.944L70.8789 149.521C70.8789 149.521 74.1631 163.733 94.855 164.969C115.547 166.205 127.37 154.465 127.37 144.578C127.37 134.691 127.37 79.6968 127.37 79.6968H108.65Z" fill="#F2F2F2"/>
<path d="M34.0947 19.604V189.044C38.9834 193.702 44.31 197.947 50.0127 201.735H185.987C190.544 198.708 194.859 195.387 198.91 191.794H44.6617V29.5441H217.139V171.221C221.3 165.177 224.85 158.726 227.711 151.948V19.604H34.0947Z" fill="#F2F2F2"/>
<path d="M40.4954 164.661C50.8347 164.661 59.2164 156.776 59.2164 147.05C59.2164 137.324 50.8347 129.44 40.4954 129.44C30.1561 129.44 21.7744 137.324 21.7744 147.05C21.7744 156.776 30.1561 164.661 40.4954 164.661Z" fill="#3F4A43"/>
</svg>
