<svg width="283" height="258" viewBox="0 0 283 258" fill="none" xmlns="http://www.w3.org/2000/svg">
<g clip-path="url(#clip0)">
<path d="M295 106C295 124.613 290.674 142.309 282.889 158.29C281.624 160.902 280.255 163.465 278.806 165.982C255.12 207.02 207.893 235 153.5 235C96.1897 235 46.8377 203.94 24.5907 159.274C20.7094 151.482 17.6545 143.278 15.5292 134.754C13.2188 125.508 12 115.883 12 106C12 34.7552 75.3517 -23 153.5 -23C217.071 -23 270.847 15.2157 288.705 67.8266C289.271 69.5011 289.802 71.1962 290.299 72.9024V72.9075C291.223 76.0982 292.02 79.3257 292.678 82.6061C292.985 84.133 293.262 85.6654 293.504 87.2078C293.672 88.2398 293.828 89.2718 293.96 90.3144C294.215 92.1784 294.416 94.0579 294.578 95.9481C294.856 99.2658 295 102.62 295 106Z" fill="#F2F2F2"/>
<path d="M203.385 39.1106C203.385 39.1106 207.486 42.9564 208.189 45.8403C208.189 45.8403 211.118 43.8105 209.126 40.6062C207.134 37.4013 203.385 39.1106 203.385 39.1106Z" fill="#5181A2"/>
<path d="M278.299 95.9026C274.615 94.2125 271.264 93.2123 268.642 92.6222C265.096 91.822 262.226 89.4421 260.984 86.3093C259.39 82.2916 256.421 75.7837 250.958 65.9222C240.175 46.4825 228.226 40.5012 220.377 35.4782C215.226 32.1822 208.456 31.5135 204.413 31.4399C202.375 31.4031 200.411 30.7239 198.846 29.5286C194.728 26.3696 186.63 22.6573 184.055 24.0476C180.89 25.7589 184.055 29.713 188.502 34.7309C192.955 39.7539 193.896 45.3089 197.055 52.7859C198.517 56.2346 200.278 58.3198 201.745 59.5624C203.281 60.8681 203.784 62.8953 202.97 64.6539C200.001 71.0515 199.008 79.1543 200.689 86.6469C202.681 95.5136 207.25 95.4083 207.25 95.4083C206.782 83.5509 213.579 78.4226 213.579 78.4226C219.788 95.7243 233.967 108.651 233.967 108.651C222.485 104.912 213.932 87.8215 213.932 87.8215C213.932 87.8215 212.996 88.6746 212.176 94.34C211.356 100 203.854 103.417 198.349 91.0284C192.84 78.6338 199.989 63.0379 199.989 63.0379C196.824 61.5423 190.263 47.7635 190.263 45.6254C190.263 43.4929 187.682 38.7909 184.523 35.9055C181.358 33.0252 175.149 24.6906 182.415 20.8468C189.674 16.998 204.09 27.3598 204.09 27.3598C226.822 26.612 250.254 51.8224 254.002 60.7945C257.75 69.7665 268.296 87.7162 268.296 87.7162C271.288 88.5431 274.101 89.6119 276.706 90.8278C277.271 92.5013 277.802 94.1964 278.299 95.9026Z" fill="#5181A2"/>
<path d="M282.578 118.949C282.463 118.901 282.353 118.849 282.243 118.801C274.978 115.595 272.05 108.866 272.05 108.866C273.932 107.149 277.271 106.165 280.679 105.606C280.985 107.133 281.262 108.666 281.504 110.208C280.234 110.434 279.431 110.571 279.431 110.571C279.431 111.224 280.43 112.199 281.961 113.315C282.215 115.179 282.417 117.059 282.578 118.949Z" fill="#5181A2"/>
<path d="M73.7188 188.793H62.647C62.647 188.793 62.647 165.726 58.9564 138.325L41.5547 188.793H32.5915L14.93 138.567C14.93 138.567 12.8738 153.326 12.5908 182.275C8.70952 174.482 5.65456 166.279 3.5293 157.754C4.34347 147.039 5.48708 135.36 7.02368 125.831H21.4335L37.8646 172.455L55.2663 125.831H68.4463C68.4457 125.831 73.7188 166.926 73.7188 188.793Z" fill="#FFA600"/>
<path d="M79.8274 142.833L91.2513 142.673C91.2513 142.673 104.081 177.763 102.852 182.089C102.852 182.089 111.112 161.099 113.221 142.673H124.47C124.47 142.673 118.493 179.847 100.216 199.395C93.3755 206.71 85.6997 206.799 78.77 204.049V198.434C78.77 198.434 88.2643 201.478 93.1859 195.069C97.1479 189.909 93.3639 181.011 89.9038 171.551C89.0647 169.26 79.8274 142.833 79.8274 142.833Z" fill="#FFA600"/>
<path d="M131.5 184.174L134.488 178.725C134.488 178.725 155.051 187.057 160.323 178.725C165.596 170.394 160.499 165.907 150.13 160.939C139.761 155.972 128.863 149.724 133.609 136.103C138.354 122.484 163.487 123.445 170.693 130.015L168.233 135.302C168.233 135.302 149.603 128.092 144.506 137.545C139.41 146.998 152.943 151.485 156.107 152.767C159.27 154.049 176.846 160.618 174.913 172.315C172.98 184.012 165.07 191.222 146.968 189.78C140.463 188.339 136.773 187.378 131.5 184.174Z" fill="#5181A2"/>
<path d="M224.107 184.934C231.876 179.242 235.208 169.117 235.208 157.575C235.208 139.773 229.588 125.341 207.387 125.341C188.27 125.341 179.566 139.773 179.566 157.575C179.566 175.377 185.931 189.81 207.387 189.81C210.495 189.81 213.313 189.457 215.854 188.793L232.383 197.634L236.426 190.42L224.107 184.934ZM207.387 182.09C194.947 182.09 191.256 171.112 191.256 157.575C191.256 144.033 194.773 133.06 207.387 133.06C220.255 133.06 223.513 144.033 223.513 157.575C223.512 171.112 220.255 182.09 207.387 182.09Z" fill="#5181A2"/>
<path d="M270.888 181.29C269.624 183.902 268.255 186.465 266.805 188.982H245.038V126.167H255.936V181.289H270.888V181.29Z" fill="#5181A2"/>
</g>
<defs>
<clipPath id="clip0">
<rect width="283" height="258" fill="white"/>
</clipPath>
</defs>
</svg>
