<svg width="269" height="275" viewBox="0 0 269 275" fill="none" xmlns="http://www.w3.org/2000/svg">
<path d="M269 137.5C269 213.439 208.782 275 134.5 275C65.9654 275 9.40397 222.599 1.06497 154.848C0.36252 149.168 0 143.376 0 137.5C0 126.736 1.20787 116.258 3.497 106.206C17.3531 45.3471 70.747 0 134.5 0C198.094 0 251.383 45.1226 265.393 105.757C267.232 113.687 268.391 121.881 268.813 130.272C268.94 132.668 269 135.075 269 137.5Z" fill="#F2F2F2"/>
<path d="M127.772 148.542V112.793L97.4876 94.9185L67.2036 112.793V148.542L97.4876 166.417L127.772 148.542Z" fill="#3B8739"/>
<path d="M247.041 143.117L266.777 154.768L247.041 166.419L216.759 148.544V112.794L247.041 94.9194L265.393 105.757C267.232 113.687 268.391 121.881 268.813 130.271L257.592 136.893V124.44L247.041 118.216L236.489 124.44V136.893L247.041 143.117Z" fill="#333333"/>
<path d="M252.919 134.138V127.198L247.04 123.729L241.161 127.198V134.138L247.04 137.608L252.919 134.138Z" fill="#66A060"/>
<path d="M52.8995 112.795V159.938L32.7024 148.158V123.992L22.6181 118.037L12.5332 123.991V148.157L1.06497 154.847C0.36252 149.167 0 143.376 0 137.5C0 126.736 1.20787 116.258 3.497 106.206L22.6181 94.9194L52.8995 112.795Z" fill="#333333"/>
<path d="M127.769 148.538L97.4854 94.9165L67.2027 112.791L97.4865 166.412L127.769 148.538Z" fill="#6DA75D"/>
<path d="M67.2036 148.542L77.6021 131.207L67.2036 112.793V148.542Z" fill="#55A344"/>
<path d="M117.676 130.666L127.772 112.793L97.4878 94.9185L117.676 130.666Z" fill="#639D57"/>
<path d="M182.074 53.4849V100.914L171.924 94.9196L141.637 112.795V148.545L171.924 166.42L202.206 148.545V64.5015L182.074 53.4849ZM182.019 136.625L171.923 142.585L161.827 136.625V124.71L171.923 118.75L182.019 124.71V136.625Z" fill="#333333"/>
<path d="M148.238 192.67C148.238 192.67 147.644 187.445 142.176 187.445C136.708 187.445 132.964 188.174 132.964 191.273C132.964 194.372 143.603 194.372 147.645 195.587C151.687 196.802 155.252 199.962 153.469 205.552C151.686 211.142 146.218 211.75 137.778 211.75C129.338 211.75 127.436 204.579 127.436 201.785H132.19C132.19 201.785 131.596 206.159 137.183 206.888C142.77 207.617 148.112 208.027 148.832 203.608C149.783 197.774 130.763 200.691 129.099 194.979C127.693 190.154 128.504 183.8 138.014 182.827C147.524 181.854 152.755 186.147 152.755 192.549L148.238 192.67Z" fill="#66A060"/>
<path d="M102.306 215.451L112.818 221.655C118.099 224.773 124.702 220.876 124.702 214.641V203.769V183.76H120.417V213.423C120.417 216.828 116.812 218.956 113.927 217.253L106.59 212.923V181.266L133.407 165.439L160.225 181.266V212.923L133.407 228.75L125.682 224.191L120.637 226.27L133.407 233.807L164.509 215.45V178.738L133.407 160.381L102.305 178.739V215.451H102.306Z" fill="#66A060"/>
</svg>
