<svg width="303" height="304" viewBox="0 0 303 304" fill="none" xmlns="http://www.w3.org/2000/svg">
<g clip-path="url(#clip0)">
<path d="M301.079 148.625V183.093C301.079 201.325 286.349 216.102 268.176 216.102H165.532C159.896 216.102 155.367 220.824 155.631 226.534C155.895 231.943 160.557 235.983 165.814 235.983H190.089C195.568 235.983 200.002 240.439 200.002 245.928V270.78C200.002 289.131 185.175 304 166.894 304H138.097C119.809 304 104.982 289.131 104.982 270.78V183.228H35.2697C17.0974 183.228 2.36719 168.449 2.36719 150.216V120.902C2.36719 102.67 17.0974 87.8912 35.2697 87.8912H104.982V87.8866H135.027C140.651 87.8866 145.184 83.183 144.928 77.4728C144.676 72.1244 140.087 68.0006 134.745 68.0006H114.894C109.422 68.0006 104.982 63.5498 104.982 58.0599V33.2198C104.982 14.8693 119.809 0 138.097 0H166.894C185.145 0 199.949 14.8136 200.002 33.1271V115.614H268.176C286.349 115.614 301.079 130.4 301.079 148.625Z" fill="#FFDA44"/>
<path d="M301.079 148.625V183.093C301.079 201.325 286.349 216.102 268.177 216.102H165.532C159.896 216.102 155.368 220.824 155.631 226.534C155.895 231.943 160.557 235.983 165.814 235.983H190.089C195.568 235.983 200.002 240.439 200.002 245.928V270.78C200.002 289.131 185.175 304 166.894 304H152.494V0H166.894C185.145 0 199.949 14.8136 200.002 33.1271V115.614H268.177C286.349 115.614 301.079 130.4 301.079 148.625Z" fill="#FFCD00"/>
<path d="M190.714 259.566C190.714 265.056 186.28 269.507 180.808 269.507C175.336 269.507 170.9 265.056 170.9 259.566C170.9 254.076 175.336 249.628 180.808 249.628C186.28 249.628 190.714 254.076 190.714 259.566Z" fill="#4895FF"/>
<path d="M190.713 259.566C190.713 265.056 186.279 269.507 180.808 269.507V249.628C186.279 249.628 190.713 254.076 190.713 259.566Z" fill="#2682FF"/>
<path d="M200.002 33.1271V115.614V129.243C200.002 140.229 191.132 149.129 180.181 149.129H114.894C109.422 149.129 104.982 153.586 104.982 159.069V183.228H35.2697C17.0974 183.228 2.36719 168.444 2.36719 150.216V120.902C2.36719 102.675 17.0974 87.8912 35.2697 87.8912H104.982V87.8866H135.027C140.651 87.8866 145.184 83.183 144.928 77.4728C144.676 72.1244 140.087 68.0006 134.745 68.0006H114.894C109.422 68.0006 104.982 63.5498 104.982 58.0599V33.2198C104.982 14.8693 119.809 0 138.097 0H166.894C185.145 0 199.949 14.8136 200.002 33.1271Z" fill="#4895FF"/>
<path d="M200.002 33.1271V115.614V129.243C200.002 140.229 191.132 149.129 180.181 149.129H152.494V0H166.894C185.145 0 199.949 14.8136 200.002 33.1271Z" fill="#2682FF"/>
<path d="M136.37 46.7255C136.37 52.213 131.934 56.6638 126.462 56.6638C120.983 56.6638 116.549 52.213 116.549 46.7255C116.549 41.2356 120.983 36.7778 126.462 36.7778C131.934 36.7778 136.37 41.2356 136.37 46.7255Z" fill="#FFDA44"/>
<path d="M136.37 46.7255C136.37 52.213 131.934 56.6638 126.462 56.6638V36.7778C131.934 36.7778 136.37 41.2356 136.37 46.7255Z" fill="#FFCD00"/>
<path d="M5.496 2.976H16.392C18.728 2.976 20.488 3.392 21.672 4.224C22.888 5.056 23.704 6.272 24.12 7.872C24.536 9.44 24.744 11.536 24.744 14.16C24.744 16.688 24.552 18.752 24.168 20.352C23.784 21.92 22.984 23.168 21.768 24.096C20.552 24.992 18.744 25.44 16.344 25.44H12.12V36H5.496V2.976ZM14.712 19.632C15.8 19.632 16.568 19.504 17.016 19.248C17.464 18.992 17.752 18.512 17.88 17.808C18.04 17.072 18.12 15.856 18.12 14.16C18.12 12.464 18.04 11.264 17.88 10.56C17.752 9.856 17.464 9.392 17.016 9.168C16.6 8.912 15.848 8.784 14.76 8.784H12.12V19.632H14.712ZM36.0053 45.744C34.8533 45.744 33.6373 45.696 32.3573 45.6C31.0773 45.504 30.0373 45.392 29.2373 45.264V40.464C30.4213 40.496 32.1973 40.512 34.5653 40.512C36.0373 40.512 37.0613 40.384 37.6373 40.128C38.2453 39.904 38.6133 39.424 38.7413 38.688C38.9013 37.984 38.9813 36.704 38.9813 34.848V32.784H38.6453C37.8773 34.896 36.1333 35.952 33.4133 35.952C31.8133 35.952 30.6133 35.632 29.8133 34.992C29.0453 34.32 28.5333 33.344 28.2773 32.064C28.0213 30.752 27.8933 28.896 27.8933 26.496V11.52H34.0853V24.384C34.0853 26.432 34.1333 27.84 34.2293 28.608C34.3253 29.376 34.5173 29.872 34.8053 30.096C35.1253 30.288 35.6853 30.384 36.4853 30.384C37.3173 30.384 37.8933 30.224 38.2133 29.904C38.5333 29.584 38.7413 29.008 38.8373 28.176C38.9333 27.312 38.9813 25.808 38.9813 23.664V11.52H45.1733V33.12C45.1733 36.416 44.9973 38.896 44.6453 40.56C44.2933 42.256 43.4613 43.536 42.1493 44.4C40.8693 45.296 38.8213 45.744 36.0053 45.744ZM51.1346 36V16.704H48.1106V11.52H51.1346V4.416H57.3266V11.52H61.2146V16.704H57.3266V36H51.1346ZM75.171 22.752C75.171 20.704 75.123 19.296 75.027 18.528C74.931 17.76 74.739 17.28 74.451 17.088C74.163 16.864 73.619 16.752 72.819 16.752C71.987 16.752 71.395 16.912 71.043 17.232C70.723 17.552 70.515 18.16 70.419 19.056C70.323 19.92 70.275 21.392 70.275 23.472V36H64.083V0.335999H70.275V14.352H70.611C71.027 13.168 71.683 12.336 72.579 11.856C73.507 11.376 74.611 11.136 75.891 11.136C77.427 11.136 78.579 11.44 79.347 12.048C80.147 12.656 80.675 13.568 80.931 14.784C81.219 16 81.363 17.68 81.363 19.824V36H75.171V22.752ZM93.9484 36.384C91.1964 36.384 89.2124 36.032 87.9964 35.328C86.7804 34.624 85.9964 33.44 85.6444 31.776C85.2924 30.112 85.1164 27.44 85.1164 23.76C85.1164 20.08 85.2924 17.408 85.6444 15.744C85.9964 14.08 86.7804 12.896 87.9964 12.192C89.2124 11.488 91.1964 11.136 93.9484 11.136C96.7004 11.136 98.6844 11.488 99.9004 12.192C101.116 12.896 101.9 14.08 102.252 15.744C102.604 17.408 102.78 20.08 102.78 23.76C102.78 27.44 102.604 30.112 102.252 31.776C101.9 33.44 101.116 34.624 99.9004 35.328C98.6844 36.032 96.7004 36.384 93.9484 36.384ZM93.9484 31.2C94.8764 31.2 95.5004 31.056 95.8204 30.768C96.1724 30.48 96.3804 29.888 96.4444 28.992C96.5404 28.064 96.5884 26.32 96.5884 23.76C96.5884 21.2 96.5404 19.472 96.4444 18.576C96.3804 17.648 96.1724 17.04 95.8204 16.752C95.5004 16.464 94.8764 16.32 93.9484 16.32C93.0204 16.32 92.3804 16.464 92.0284 16.752C91.7084 17.04 91.5004 17.648 91.4044 18.576C91.3404 19.472 91.3084 21.2 91.3084 23.76C91.3084 26.32 91.3404 28.064 91.4044 28.992C91.5004 29.888 91.7084 30.48 92.0284 30.768C92.3804 31.056 93.0204 31.2 93.9484 31.2ZM117.687 22.752C117.687 20.704 117.639 19.296 117.543 18.528C117.447 17.76 117.255 17.28 116.967 17.088C116.679 16.864 116.135 16.752 115.335 16.752C114.503 16.752 113.911 16.912 113.559 17.232C113.239 17.552 113.031 18.16 112.935 19.056C112.839 19.92 112.791 21.392 112.791 23.472V36H106.599V11.52H112.455L112.647 14.448H112.983C113.431 13.232 114.119 12.384 115.047 11.904C115.975 11.392 117.095 11.136 118.407 11.136C119.943 11.136 121.095 11.44 121.863 12.048C122.663 12.656 123.191 13.584 123.447 14.832C123.735 16.048 123.879 17.744 123.879 19.92V36H117.687V22.752Z" fill="black"/>
</g>
<defs>
<clipPath id="clip0">
<rect width="303" height="304" fill="white"/>
</clipPath>
</defs>
</svg>
