<svg width="291" height="269" viewBox="0 0 291 269" fill="none" xmlns="http://www.w3.org/2000/svg">
<g clip-path="url(#clip0)">
<path d="M291 134.5C291 178.814 267.815 218.121 232.051 242.627C217.08 252.882 199.905 260.545 181.304 264.894C169.849 267.578 157.858 269 145.5 269C133.142 269 121.145 267.578 109.689 264.894C91.0892 260.545 73.914 252.882 58.9423 242.621C23.1788 218.115 0 178.808 0 134.5C0 60.2176 65.1425 0 145.5 0C225.857 0 291 60.2176 291 134.5Z" fill="#5ADAFD"/>
<path d="M232.2 210.232C231.517 205.999 230.614 201.64 229.498 197.183C228.512 193.269 227.366 189.277 226.066 185.226C222.645 174.587 218.138 163.531 212.674 152.353C210.281 147.467 207.703 142.56 204.953 137.657C202.531 133.337 199.977 129.011 197.286 124.712C194.602 120.408 191.835 116.203 188.99 112.102C185.777 107.452 182.469 102.94 179.084 98.5807C171.351 88.6166 163.246 79.4764 154.984 71.4169C151.843 68.3481 148.677 65.4385 145.5 62.6991C141.884 59.5699 138.249 56.6661 134.62 54.0034C110.93 36.6172 89.7231 31.3963 74.8941 39.3072C60.065 47.2232 54.3518 66.8108 58.7941 94.4742C59.4711 98.7068 60.3799 103.066 61.5024 107.523C62.4765 111.438 63.6224 115.429 64.929 119.48C68.35 130.119 72.8571 141.181 78.327 152.353C80.7146 157.239 83.2916 162.141 86.0413 167.043C88.4642 171.369 91.0241 175.69 93.7085 179.994C96.3928 184.298 99.1602 188.503 102.005 192.604C105.223 197.259 108.531 201.772 111.911 206.13C119.643 216.094 127.749 225.229 136.01 233.288C139.152 236.357 142.323 239.272 145.5 242.011C149.117 245.141 152.751 248.039 156.374 250.702C165.086 257.097 173.46 261.846 181.305 264.893C199.905 260.545 217.081 252.882 232.052 242.627C234.142 233.723 234.219 222.815 232.2 210.232ZM218.861 240.629C217.133 247.535 213.956 252.267 209.413 254.688C204.876 257.115 198.854 257.291 191.519 255.226C183.573 252.981 174.297 248.073 164.688 241.019C161.457 238.647 158.221 236.067 154.984 233.295C151.812 230.571 148.641 227.662 145.494 224.582C140.089 219.295 134.745 213.509 129.53 207.3C126.05 203.155 122.624 198.824 119.28 194.328C114.428 187.811 109.742 180.949 105.288 173.812C100.828 166.676 96.7424 159.495 93.0662 152.353C90.5245 147.428 88.1783 142.521 86.0407 137.662C82.8278 130.383 80.0781 123.208 77.8274 116.241C76.5207 112.179 75.3749 108.193 74.4183 104.29C73.4322 100.316 72.6309 96.4287 72.025 92.6574C70.2199 81.4419 70.2614 71.5604 72.1318 64.0777C73.8602 57.1715 77.043 52.4393 81.5802 50.0183C84.0327 48.7116 86.9132 48.0528 90.1971 48.0528C93.0003 48.0528 96.1001 48.5304 99.4733 49.4855C107.42 51.7253 116.696 56.6387 126.304 63.6879C129.535 66.0595 132.777 68.6397 136.009 71.4232C139.186 74.1405 142.352 77.0502 145.493 80.1248C150.903 85.4112 156.248 91.1979 161.468 97.4122C164.948 101.557 168.375 105.888 171.719 110.385C176.564 116.901 181.251 123.763 185.704 130.894C190.164 138.031 194.25 145.212 197.926 152.354C200.468 157.284 202.814 162.192 204.952 167.05C208.165 174.329 210.914 181.499 213.165 188.466C214.472 192.528 215.618 196.514 216.58 200.417C217.56 204.391 218.362 208.278 218.967 212.049C220.774 223.265 220.732 233.146 218.861 240.629Z" fill="#F2F2F2"/>
<path d="M243.074 111.888C238.768 110.318 234.231 108.863 229.492 107.523C225.335 106.354 221.023 105.273 216.575 104.29C204.899 101.71 192.286 99.7886 179.084 98.5808C173.317 98.048 167.432 97.6587 161.469 97.4113C156.207 97.1864 150.874 97.0708 145.5 97.0708C140.125 97.0708 134.792 97.1859 129.524 97.4113C123.556 97.6582 117.671 98.0538 111.904 98.5808C98.7023 99.7886 86.0944 101.71 74.4186 104.29C69.9706 105.273 65.659 106.354 61.5015 107.523C56.7625 108.857 52.2253 110.318 47.9194 111.888C19.7879 122.153 4.2876 136.526 4.2876 152.353C4.2876 168.18 19.7879 182.552 47.92 192.824C52.2259 194.394 56.7568 195.848 61.4958 197.188C65.6528 198.358 69.9644 199.439 74.4129 200.416C86.0887 203.002 98.7023 204.918 111.91 206.131C117.677 206.658 123.562 207.048 129.531 207.3C134.793 207.525 140.125 207.635 145.5 207.635C150.874 207.635 156.202 207.525 161.463 207.3C167.432 207.048 173.311 206.658 179.084 206.131C192.286 204.923 204.905 203.002 216.581 200.416C221.029 199.434 225.341 198.358 229.498 197.183C234.232 195.849 238.769 194.394 243.074 192.824C271.212 182.552 286.707 168.18 286.707 152.353C286.706 136.526 271.212 122.153 243.074 111.888ZM264.881 166.945C258.811 172.187 249.571 177.156 238.162 181.322C234.32 182.722 230.281 184.029 226.065 185.226C221.925 186.406 217.62 187.487 213.166 188.465C205.511 190.15 197.416 191.533 188.989 192.604C183.371 193.323 177.604 193.9 171.719 194.323C163.185 194.954 154.413 195.273 145.499 195.273C136.585 195.273 127.814 194.954 119.28 194.328C113.394 193.9 107.622 193.324 102.004 192.605C93.5769 191.534 85.4823 190.151 77.827 188.465C73.3728 187.488 69.0675 186.407 64.9281 185.226C60.7115 184.029 56.6733 182.723 52.8306 181.323C41.4225 177.156 32.1815 172.188 26.112 166.945C20.5057 162.108 17.6611 157.201 17.6611 152.353C17.6611 147.506 20.5057 142.598 26.112 137.762C32.1815 132.519 41.4219 127.551 52.8306 123.384C56.6727 121.984 60.7115 120.678 64.9281 119.481C69.0675 118.3 73.3728 117.219 77.827 116.242C85.4823 114.556 93.5769 113.173 102.004 112.102C107.622 111.383 113.394 110.807 119.28 110.378C127.814 109.753 136.585 109.434 145.499 109.434C154.413 109.434 163.185 109.753 171.719 110.384C177.604 110.807 183.371 111.383 188.989 112.103C197.416 113.173 205.511 114.557 213.166 116.242C217.62 117.22 221.925 118.301 226.065 119.481C230.281 120.678 234.32 121.985 238.162 123.384C249.57 127.551 258.811 132.519 264.881 137.762C270.487 142.599 273.332 147.507 273.332 152.354C273.332 157.201 270.487 162.108 264.881 166.945Z" fill="#F2F2F2"/>
<path d="M216.1 39.3072C201.271 31.3963 180.063 36.6172 156.374 54.0034C152.751 56.6661 149.116 59.5699 145.5 62.6991C142.323 65.4385 139.151 68.3534 136.01 71.4222C127.749 79.4811 119.643 88.6161 111.905 98.5802C108.526 102.939 105.217 107.452 102.005 112.102C99.1604 116.202 96.393 120.408 93.7087 124.712C91.0243 129.016 88.465 133.336 86.0415 137.662C83.2918 142.564 80.7143 147.472 78.3271 152.352C72.8573 163.529 68.3502 174.586 64.9292 185.225C63.6226 189.282 62.4767 193.273 61.4963 197.187C60.3801 201.645 59.4713 205.998 58.7943 210.231C56.775 222.808 56.8523 233.716 58.9427 242.621C73.9144 252.881 91.0891 260.545 109.69 264.893C117.535 261.846 125.908 257.097 134.621 250.702C138.249 248.039 141.884 245.135 145.501 242.011C148.678 239.272 151.844 236.362 154.985 233.293C163.24 225.234 171.352 216.094 179.085 206.13C182.464 201.771 185.772 197.258 188.991 192.603C191.835 188.502 194.603 184.297 197.287 179.993C199.977 175.694 202.531 171.374 204.954 167.048C207.704 162.146 210.281 157.238 212.675 152.352C218.138 141.18 222.646 130.118 226.066 119.479C227.367 115.428 228.513 111.436 229.493 107.522C230.616 103.064 231.518 98.7057 232.201 94.4732C236.642 66.8108 230.929 47.2232 216.1 39.3072ZM213.166 116.241C210.916 123.208 208.166 130.377 204.953 137.657C202.815 142.515 200.469 147.423 197.928 152.353C194.251 159.495 190.165 166.676 185.706 173.812C181.251 180.944 176.566 187.806 171.72 194.322C168.371 198.824 164.944 203.155 161.464 207.3C156.25 213.509 150.905 219.295 145.495 224.581C142.353 227.656 139.188 230.565 136.011 233.288C132.78 236.066 129.537 238.646 126.306 241.018C116.698 248.072 107.421 252.98 99.4752 255.225C92.1411 257.29 86.1188 257.114 81.5816 254.687C77.0444 252.266 73.861 247.534 72.1332 240.628C70.2627 233.145 70.2206 223.264 72.0263 212.048C72.6322 208.277 73.4336 204.39 74.4134 200.416C75.3757 196.512 76.5215 192.527 77.8281 188.465C80.0788 181.498 82.8286 174.323 86.0415 167.043C88.1797 162.185 90.5253 157.277 93.067 152.353C96.7431 145.211 100.829 138.03 105.289 130.893C109.743 123.756 114.429 116.894 119.281 110.378C122.625 105.882 126.045 101.55 129.525 97.4112C134.745 91.1968 140.09 85.4107 145.494 80.1237C148.642 77.0439 151.813 74.1342 154.984 71.4169C158.221 68.6392 161.457 66.059 164.688 63.6874C174.297 56.6387 183.574 51.7253 191.519 49.485C194.893 48.5299 197.992 48.0523 200.796 48.0523C204.079 48.0523 206.966 48.7111 209.412 50.0178C213.955 52.4388 217.133 57.171 218.861 64.0772C220.731 71.5598 220.773 81.4414 218.968 92.6569C218.362 96.4282 217.56 100.315 216.574 104.29C215.619 108.193 214.473 112.178 213.166 116.241Z" fill="#F2F2F2"/>
<path d="M145.5 176.887C160.158 176.887 172.04 165.903 172.04 152.353C172.04 138.803 160.158 127.819 145.5 127.819C130.842 127.819 118.96 138.803 118.96 152.353C118.96 165.903 130.842 176.887 145.5 176.887Z" fill="#F2F2F2"/>
<path d="M180.184 265L175.896 249.64H171.16V265H162.328V220.968H177.176C180.333 220.968 182.701 221.501 184.28 222.568C185.901 223.635 186.989 225.171 187.544 227.176C188.099 229.181 188.376 231.869 188.376 235.24C188.376 238.44 188.077 241.085 187.48 243.176C186.925 245.267 185.773 246.845 184.024 247.912L189.336 265H180.184ZM175.064 242.024C176.472 242.024 177.475 241.875 178.072 241.576C178.669 241.235 179.053 240.637 179.224 239.784C179.437 238.888 179.544 237.395 179.544 235.304C179.544 233.256 179.437 231.805 179.224 230.952C179.053 230.099 178.669 229.523 178.072 229.224C177.475 228.883 176.472 228.712 175.064 228.712H171.16V242.024H175.064ZM215.585 251.24H201.057C201.057 253.672 201.164 255.357 201.377 256.296C201.59 257.235 202.081 257.853 202.849 258.152C203.617 258.451 205.004 258.6 207.009 258.6C208.63 258.6 211.233 258.472 214.817 258.216V264.552C213.665 264.808 212.172 265.021 210.337 265.192C208.502 265.405 206.753 265.512 205.089 265.512C201.292 265.512 198.518 264.957 196.769 263.848C195.062 262.696 193.974 261.011 193.505 258.792C193.036 256.573 192.801 253.224 192.801 248.744C192.801 244.349 193.036 241.021 193.505 238.76C193.974 236.499 195.041 234.792 196.705 233.64C198.369 232.445 200.993 231.848 204.577 231.848C208.076 231.848 210.593 232.403 212.129 233.512C213.708 234.579 214.668 236.2 215.009 238.376C215.393 240.552 215.585 244.008 215.585 248.744V251.24ZM204.513 238.696C203.446 238.696 202.678 238.845 202.209 239.144C201.782 239.443 201.484 240.061 201.313 241C201.142 241.939 201.057 243.496 201.057 245.672H207.841C207.841 243.496 207.756 241.939 207.585 241C207.414 240.019 207.116 239.4 206.689 239.144C206.262 238.845 205.537 238.696 204.513 238.696ZM226.837 265.512C224.191 265.512 222.293 264.723 221.141 263.144C219.989 261.523 219.413 259.005 219.413 255.592C219.413 253.075 219.669 251.112 220.181 249.704C220.693 248.253 221.546 247.208 222.741 246.568C223.978 245.885 225.685 245.544 227.861 245.544C229.397 245.544 231.445 245.629 234.005 245.8V244.328C234.005 242.536 233.855 241.277 233.557 240.552C233.301 239.784 232.789 239.293 232.021 239.08C231.295 238.867 230.015 238.76 228.181 238.76C226.389 238.76 223.999 238.909 221.013 239.208V232.808C224.213 232.168 227.434 231.848 230.677 231.848C233.877 231.848 236.309 232.275 237.973 233.128C239.637 233.981 240.767 235.325 241.365 237.16C241.962 238.995 242.261 241.619 242.261 245.032V265H234.389L234.133 261.16H233.685C233.13 262.739 232.234 263.869 230.997 264.552C229.759 265.192 228.373 265.512 226.837 265.512ZM230.421 258.344C231.146 258.344 231.722 258.259 232.149 258.088C232.618 257.917 233.002 257.597 233.301 257.128C233.77 256.403 234.005 254.931 234.005 252.712V251.112H230.165C229.055 251.112 228.309 251.347 227.925 251.816C227.583 252.285 227.413 253.309 227.413 254.888C227.413 256.253 227.583 257.171 227.925 257.64C228.309 258.109 229.141 258.344 230.421 258.344ZM265.223 264.552C263.047 265.192 260.657 265.512 258.055 265.512C254.897 265.512 252.551 264.915 251.015 263.72C249.479 262.525 248.455 260.776 247.943 258.472C247.473 256.168 247.239 252.904 247.239 248.68C247.239 244.456 247.495 241.171 248.007 238.824C248.561 236.477 249.607 234.728 251.143 233.576C252.679 232.424 254.961 231.848 257.991 231.848C260.892 231.848 263.239 232.147 265.031 232.744V239.144C263.068 238.888 261.511 238.76 260.359 238.76C258.823 238.76 257.735 238.973 257.095 239.4C256.455 239.827 256.028 240.701 255.815 242.024C255.601 243.347 255.495 245.565 255.495 248.68C255.495 251.837 255.601 254.077 255.815 255.4C256.071 256.723 256.519 257.597 257.159 258.024C257.799 258.408 258.887 258.6 260.423 258.6C261.489 258.6 263.089 258.472 265.223 258.216V264.552ZM271.867 265V239.272H267.835V232.36H271.867V222.888H280.123V232.36H285.307V239.272H280.123V265H271.867Z" fill="black"/>
</g>
<defs>
<clipPath id="clip0">
<rect width="291" height="269" fill="white"/>
</clipPath>
</defs>
</svg>
